<svg xmlns="http://www.w3.org/2000/svg">
  <symbol id="logo-rounded" viewBox="0 0 400 377"><style>.st0{fill:#fff}</style><path class="st0" d="M308.4 67.5c32 31.9 49.6 74.3 49.6 119.5s-17.6 87.6-49.6 119.5S233.7 356 188.5 356s-87.9-17.6-119.9-49.5S19 232.1 19 187 36.6 99.4 68.6 67.5c32-32 74.7-49.5 119.9-49.5"/><path class="st0" d="M188.5 18c45.3 0 87.9 17.6 119.9 49.5"/><g id="Layer_2_1_"><path style="fill-rule:evenodd;clip-rule:evenodd" d="M274.4 137.2v-31.6H125.2v31.6h56.4v33.4h-31.7V187h31.7v15.3h-31.7v16.4h31.7v70h35.6v-70h32.1v-16.4h-32.1V187h32.1v-16.4h-32.1v-33.4z"/><path d="M231.7 1c-.4 0-.5.6-.1.7 15.4 3.4 30.2 8.7 43.9 15.7h18.9c.4 0 .5-.5.2-.7-6.1-3-12.3-5.7-18.8-8.1-14-5.1-29-7.6-44.1-7.6zM314.3 28.1h-19c-.4 0-.5.5-.2.7 8.8 5.9 17.2 12.6 24.9 19.9.1.1.2.1.2.1h19.3c.3 0 .5-.4.3-.6-7.8-7.3-16.3-14-25.2-19.9-.1-.1-.2-.2-.3-.2zM332.5 315.3h19.4c.1 0 .2 0 .3-.1 7.1-8 13.5-16.6 19.1-25.7.2-.2 0-.6-.3-.6h-19.5c-.1 0-.2.1-.3.2-5.6 9.1-12 17.6-19 25.6-.2.3 0 .6.3.6zM295.7 347.7h19c.1 0 .1 0 .2-.1 8.7-5.8 16.9-12.3 24.5-19.4.2-.2.1-.6-.2-.6h-19.3c-.1 0-.2 0-.2.1-7.5 7.1-15.6 13.6-24.2 19.3-.3.2-.2.7.2.7zM352.1 61h-19.4c-.3 0-.5.4-.3.6 7 8 13.3 16.5 18.9 25.6.1.1.2.2.3.2h19.5c.3 0 .5-.3.3-.6-5.6-9.1-12-17.7-19.1-25.7 0-.1-.1-.1-.2-.1zM375 232.9h19.6c.2 0 .3-.1.4-.3 2.7-11.5 4.4-23.4 5-35.6 0-.2-.2-.4-.4-.4H380c-.2 0-.3.2-.4.3-.6 12.2-2.2 24-4.9 35.5-.1.3.1.5.3.5zM358.8 276.7h19.5c.1 0 .3-.1.3-.2 4.8-9.2 8.8-18.8 12.1-28.8.1-.2-.1-.5-.3-.5h-19.6c-.2 0-.3.1-.3.2-3.2 10-7.2 19.5-12 28.7-.1.4.1.6.3.6zM231.7 375.1c15.1 0 30.1-2.5 44.3-7.7 6.5-2.4 12.9-5.2 19.1-8.3.3-.2.2-.7-.2-.7H276c-13.9 7.1-28.8 12.5-44.4 15.9-.4.2-.3.8.1.8zM378.5 99.6H359c-.3 0-.4.3-.3.5 4.9 9.5 9 19.4 12.2 29.7 0 .1.2.3.3.3h19.6c.2 0 .4-.2.3-.5-3.3-10.4-7.4-20.3-12.3-29.8 0-.1-.2-.2-.3-.2zM375 144.9c2.5 11.1 4.1 22.6 4.6 34.4 0 .2.2.3.4.3h19.6c.2 0 .4-.2.4-.4-.5-11.8-2.1-23.4-4.7-34.6 0-.2-.2-.3-.4-.3h-19.6c-.2.2-.4.4-.3.6z"/><path d="M188.3 23c44.2 0 85.7 17.2 116.9 48.3s48.4 72.5 48.4 116.5-17.2 85.4-48.4 116.5-72.8 48.3-116.9 48.3-85.7-17.2-116.9-48.3S23 231.8 23 187.8s17.2-85.4 48.4-116.5C102.6 40.1 144.2 23 188.3 23m0-23C84.3 0 0 84 0 187.8s84.3 187.8 188.3 187.8 188.3-84.1 188.3-187.8S292.4 0 188.3 0z"/></g></symbol>

  <symbol id="botcoin" viewBox="0 0 32 32"><path d="M3.5 3.4c0 2.3.5 2.5 4.8 2.8 4.3.3 4.7.5 4.7 2.8 0 2-.6 2.6-2.7 2.8-3.5.4-3.6 2-.3 2.4 1.4.2 2.6.7 2.6 1.3 0 .5-1.2 1.1-2.6 1.3-3.3.4-3.2 2 .3 2.4 2.6.3 2.7.6 3 6 .3 5.4.5 5.8 2.7 5.8s2.4-.4 2.7-5.8c.3-5.4.4-5.7 3.1-6 3.4-.4 3.5-2 .2-2.4-1.4-.2-2.6-.8-2.6-1.3 0-.6 1.2-1.1 2.6-1.3 3.5-.5 3.1-2.2-.6-2.2-2.7 0-3-.3-2.7-2.8.3-2.5.7-2.7 5.1-3 4.2-.3 4.7-.5 4.7-2.8V1h-25v2.4z"/></symbol>
</svg>